<mxfile host="app.diagrams.net" modified="2022-09-21T18:22:28.330Z" agent="5.0 (Macintosh; Intel Mac OS X 10_15_7) AppleWebKit/537.36 (KHTML, like Gecko) Chrome/105.0.0.0 Safari/537.36" etag="kFjCssLGO7tnY9t31zK7" version="20.3.3" type="github">
  <diagram id="XIOwa87d72vK2ocAE6IX" name="Page-1">
    <mxGraphModel dx="1527" dy="920" grid="1" gridSize="10" guides="1" tooltips="1" connect="1" arrows="1" fold="1" page="0" pageScale="1" pageWidth="850" pageHeight="1100" math="0" shadow="0">
      <root>
        <mxCell id="0" />
        <mxCell id="1" parent="0" />
        <mxCell id="XvFigzX03iVogi8GRAQK-3" value="" style="shape=or;whiteSpace=wrap;html=1;" vertex="1" parent="1">
          <mxGeometry x="540" y="180" width="60" height="100" as="geometry" />
        </mxCell>
        <mxCell id="XvFigzX03iVogi8GRAQK-4" value="" style="endArrow=none;html=1;rounded=0;" edge="1" parent="1">
          <mxGeometry width="50" height="50" relative="1" as="geometry">
            <mxPoint x="540" y="260" as="sourcePoint" />
            <mxPoint x="270" y="260" as="targetPoint" />
          </mxGeometry>
        </mxCell>
        <mxCell id="XvFigzX03iVogi8GRAQK-6" value="" style="endArrow=none;html=1;rounded=0;fontSize=22;entryX=0;entryY=0.25;entryDx=0;entryDy=0;entryPerimeter=0;" edge="1" parent="1" target="XvFigzX03iVogi8GRAQK-3">
          <mxGeometry width="50" height="50" relative="1" as="geometry">
            <mxPoint x="270" y="205" as="sourcePoint" />
            <mxPoint x="680" y="440" as="targetPoint" />
          </mxGeometry>
        </mxCell>
        <mxCell id="XvFigzX03iVogi8GRAQK-8" value="&lt;span style=&quot;font-size: 17px;&quot;&gt;AND&lt;br&gt;&lt;/span&gt;" style="text;html=1;strokeColor=none;fillColor=none;align=center;verticalAlign=middle;whiteSpace=wrap;rounded=0;strokeWidth=6;fontSize=22;" vertex="1" parent="1">
          <mxGeometry x="540" y="215" width="60" height="30" as="geometry" />
        </mxCell>
        <mxCell id="XvFigzX03iVogi8GRAQK-9" value="&lt;span style=&quot;font-size: 22px;&quot;&gt;&lt;b&gt;A&lt;/b&gt;&lt;/span&gt;" style="text;html=1;strokeColor=none;fillColor=none;align=center;verticalAlign=middle;whiteSpace=wrap;rounded=0;strokeWidth=9;" vertex="1" parent="1">
          <mxGeometry x="220" y="185" width="60" height="30" as="geometry" />
        </mxCell>
        <mxCell id="XvFigzX03iVogi8GRAQK-10" value="&lt;span style=&quot;font-size: 22px;&quot;&gt;&lt;b&gt;B&lt;/b&gt;&lt;/span&gt;" style="text;html=1;strokeColor=none;fillColor=none;align=center;verticalAlign=middle;whiteSpace=wrap;rounded=0;strokeWidth=9;" vertex="1" parent="1">
          <mxGeometry x="220" y="245" width="60" height="30" as="geometry" />
        </mxCell>
        <mxCell id="XvFigzX03iVogi8GRAQK-12" value="" style="endArrow=none;html=1;rounded=0;fontSize=22;" edge="1" parent="1">
          <mxGeometry width="50" height="50" relative="1" as="geometry">
            <mxPoint x="600" y="229.23" as="sourcePoint" />
            <mxPoint x="760" y="230" as="targetPoint" />
          </mxGeometry>
        </mxCell>
        <mxCell id="XvFigzX03iVogi8GRAQK-13" value="" style="verticalLabelPosition=bottom;shadow=0;dashed=0;align=center;html=1;verticalAlign=top;shape=mxgraph.electrical.iec_logic_gates.not_2;" vertex="1" parent="1">
          <mxGeometry x="650" y="190" width="66" height="80" as="geometry" />
        </mxCell>
        <mxCell id="XvFigzX03iVogi8GRAQK-14" value="&lt;span style=&quot;font-size: 17px;&quot;&gt;&lt;b&gt;NOT&lt;/b&gt;&lt;br&gt;&lt;/span&gt;" style="text;html=1;strokeColor=none;fillColor=none;align=center;verticalAlign=middle;whiteSpace=wrap;rounded=0;strokeWidth=6;fontSize=22;" vertex="1" parent="1">
          <mxGeometry x="650" y="270" width="60" height="30" as="geometry" />
        </mxCell>
        <mxCell id="XvFigzX03iVogi8GRAQK-15" value="" style="shape=or;whiteSpace=wrap;html=1;" vertex="1" parent="1">
          <mxGeometry x="540" y="350" width="60" height="100" as="geometry" />
        </mxCell>
        <mxCell id="XvFigzX03iVogi8GRAQK-16" value="" style="endArrow=none;html=1;rounded=0;" edge="1" parent="1">
          <mxGeometry width="50" height="50" relative="1" as="geometry">
            <mxPoint x="540" y="430" as="sourcePoint" />
            <mxPoint x="270" y="430" as="targetPoint" />
          </mxGeometry>
        </mxCell>
        <mxCell id="XvFigzX03iVogi8GRAQK-17" value="" style="endArrow=none;html=1;rounded=0;fontSize=22;entryX=0;entryY=0.25;entryDx=0;entryDy=0;entryPerimeter=0;" edge="1" target="XvFigzX03iVogi8GRAQK-15" parent="1">
          <mxGeometry width="50" height="50" relative="1" as="geometry">
            <mxPoint x="270" y="375" as="sourcePoint" />
            <mxPoint x="680" y="610" as="targetPoint" />
          </mxGeometry>
        </mxCell>
        <mxCell id="XvFigzX03iVogi8GRAQK-18" value="&lt;span style=&quot;font-size: 17px;&quot;&gt;AND&lt;br&gt;&lt;/span&gt;" style="text;html=1;strokeColor=none;fillColor=none;align=center;verticalAlign=middle;whiteSpace=wrap;rounded=0;strokeWidth=6;fontSize=22;" vertex="1" parent="1">
          <mxGeometry x="540" y="385" width="60" height="30" as="geometry" />
        </mxCell>
        <mxCell id="XvFigzX03iVogi8GRAQK-19" value="&lt;span style=&quot;font-size: 22px;&quot;&gt;&lt;b&gt;C&lt;/b&gt;&lt;/span&gt;" style="text;html=1;strokeColor=none;fillColor=none;align=center;verticalAlign=middle;whiteSpace=wrap;rounded=0;strokeWidth=9;" vertex="1" parent="1">
          <mxGeometry x="220" y="355" width="60" height="30" as="geometry" />
        </mxCell>
        <mxCell id="XvFigzX03iVogi8GRAQK-20" value="&lt;span style=&quot;font-size: 22px;&quot;&gt;&lt;b&gt;D&lt;/b&gt;&lt;/span&gt;" style="text;html=1;strokeColor=none;fillColor=none;align=center;verticalAlign=middle;whiteSpace=wrap;rounded=0;strokeWidth=9;" vertex="1" parent="1">
          <mxGeometry x="220" y="415" width="60" height="30" as="geometry" />
        </mxCell>
        <mxCell id="XvFigzX03iVogi8GRAQK-21" value="" style="endArrow=none;html=1;rounded=0;fontSize=22;" edge="1" parent="1">
          <mxGeometry width="50" height="50" relative="1" as="geometry">
            <mxPoint x="600" y="399.23" as="sourcePoint" />
            <mxPoint x="710" y="400" as="targetPoint" />
          </mxGeometry>
        </mxCell>
        <mxCell id="XvFigzX03iVogi8GRAQK-22" value="" style="verticalLabelPosition=bottom;shadow=0;dashed=0;align=center;html=1;verticalAlign=top;shape=mxgraph.electrical.iec_logic_gates.not_2;" vertex="1" parent="1">
          <mxGeometry x="380" y="350" width="40" height="50" as="geometry" />
        </mxCell>
        <mxCell id="XvFigzX03iVogi8GRAQK-23" value="&lt;b style=&quot;&quot;&gt;&lt;font style=&quot;font-size: 12px;&quot;&gt;NOT&lt;/font&gt;&lt;/b&gt;" style="text;html=1;strokeColor=none;fillColor=none;align=center;verticalAlign=middle;whiteSpace=wrap;rounded=0;strokeWidth=6;fontSize=22;" vertex="1" parent="1">
          <mxGeometry x="370" y="390" width="60" height="30" as="geometry" />
        </mxCell>
        <mxCell id="XvFigzX03iVogi8GRAQK-25" value="" style="shape=or;whiteSpace=wrap;html=1;" vertex="1" parent="1">
          <mxGeometry x="830" y="270" width="60" height="100" as="geometry" />
        </mxCell>
        <mxCell id="XvFigzX03iVogi8GRAQK-26" value="" style="endArrow=none;html=1;rounded=0;fontSize=22;" edge="1" parent="1">
          <mxGeometry width="50" height="50" relative="1" as="geometry">
            <mxPoint x="890" y="319.5" as="sourcePoint" />
            <mxPoint x="1000" y="320" as="targetPoint" />
          </mxGeometry>
        </mxCell>
        <mxCell id="XvFigzX03iVogi8GRAQK-27" value="&lt;span style=&quot;font-size: 17px;&quot;&gt;AND&lt;br&gt;&lt;/span&gt;" style="text;html=1;strokeColor=none;fillColor=none;align=center;verticalAlign=middle;whiteSpace=wrap;rounded=0;strokeWidth=6;fontSize=22;" vertex="1" parent="1">
          <mxGeometry x="830" y="305" width="60" height="30" as="geometry" />
        </mxCell>
        <mxCell id="XvFigzX03iVogi8GRAQK-28" value="&lt;span style=&quot;font-size: 22px;&quot;&gt;&lt;b&gt;Y&lt;/b&gt;&lt;/span&gt;" style="text;html=1;strokeColor=none;fillColor=none;align=center;verticalAlign=middle;whiteSpace=wrap;rounded=0;strokeWidth=9;" vertex="1" parent="1">
          <mxGeometry x="990" y="305" width="60" height="30" as="geometry" />
        </mxCell>
        <mxCell id="XvFigzX03iVogi8GRAQK-29" value="" style="endArrow=classic;html=1;rounded=0;fontSize=12;" edge="1" parent="1">
          <mxGeometry width="50" height="50" relative="1" as="geometry">
            <mxPoint x="760" y="230" as="sourcePoint" />
            <mxPoint x="830" y="290" as="targetPoint" />
            <Array as="points">
              <mxPoint x="760" y="290" />
            </Array>
          </mxGeometry>
        </mxCell>
        <mxCell id="XvFigzX03iVogi8GRAQK-30" value="" style="endArrow=classic;html=1;rounded=0;fontSize=12;entryX=0;entryY=0.75;entryDx=0;entryDy=0;" edge="1" parent="1" target="XvFigzX03iVogi8GRAQK-27">
          <mxGeometry width="50" height="50" relative="1" as="geometry">
            <mxPoint x="710" y="400" as="sourcePoint" />
            <mxPoint x="720" y="340" as="targetPoint" />
            <Array as="points">
              <mxPoint x="710" y="330" />
            </Array>
          </mxGeometry>
        </mxCell>
      </root>
    </mxGraphModel>
  </diagram>
</mxfile>
